<mxfile host="app.diagrams.net" modified="2024-06-11T14:36:45.771Z" agent="Mozilla/5.0 (Windows NT 10.0; Win64; x64) AppleWebKit/537.36 (KHTML, like Gecko) Chrome/125.0.0.0 Safari/537.36 Edg/125.0.0.0" etag="W388Cp7M5G9ChWzleN74" version="24.5.3" type="device">
  <diagram id="piDafpqhtRUU5qUU-vj8" name="Page-1">
    <mxGraphModel dx="1829" dy="569" grid="1" gridSize="10" guides="1" tooltips="1" connect="1" arrows="1" fold="1" page="1" pageScale="1" pageWidth="827" pageHeight="1169" math="0" shadow="0">
      <root>
        <mxCell id="0" />
        <mxCell id="1" parent="0" />
        <mxCell id="OQivGDFEb7aUIYo6v7pB-1" value="" style="swimlane;startSize=0;" vertex="1" parent="1">
          <mxGeometry x="-2" width="830" height="680" as="geometry" />
        </mxCell>
        <mxCell id="OQivGDFEb7aUIYo6v7pB-2" value="" style="verticalLabelPosition=bottom;verticalAlign=top;strokeWidth=1;shape=mxgraph.mockup.graphics.iconGrid;strokeColor=#CCCCCC;gridSize=1,1;" vertex="1" parent="OQivGDFEb7aUIYo6v7pB-1">
          <mxGeometry x="242" y="140" width="530" height="460" as="geometry" />
        </mxCell>
        <mxCell id="OQivGDFEb7aUIYo6v7pB-3" value="" style="line;strokeWidth=1" vertex="1" parent="OQivGDFEb7aUIYo6v7pB-1">
          <mxGeometry y="610" width="826" height="10" as="geometry" />
        </mxCell>
        <mxCell id="OQivGDFEb7aUIYo6v7pB-4" value="" style="html=1;shadow=0;dashed=0;shape=mxgraph.bootstrap.rrect;rSize=5;strokeColor=none;html=1;whiteSpace=wrap;fillColor=#6C767D;fontColor=#ffffff;sketch=0;" vertex="1" parent="OQivGDFEb7aUIYo6v7pB-1">
          <mxGeometry x="10" y="130" width="210" height="490" as="geometry" />
        </mxCell>
        <mxCell id="OQivGDFEb7aUIYo6v7pB-5" value="Dashboard" style="strokeColor=inherit;fillColor=inherit;gradientColor=inherit;fontColor=inherit;html=1;shadow=0;dashed=0;shape=mxgraph.bootstrap.topButton;rSize=5;perimeter=none;whiteSpace=wrap;resizeWidth=1;sketch=0;" vertex="1" parent="OQivGDFEb7aUIYo6v7pB-4">
          <mxGeometry width="210" height="30" relative="1" as="geometry" />
        </mxCell>
        <mxCell id="OQivGDFEb7aUIYo6v7pB-6" value="Invoices" style="strokeColor=inherit;fillColor=inherit;gradientColor=inherit;fontColor=inherit;html=1;shadow=0;dashed=0;perimeter=none;whiteSpace=wrap;resizeWidth=1;sketch=0;" vertex="1" parent="OQivGDFEb7aUIYo6v7pB-4">
          <mxGeometry width="210" height="30" relative="1" as="geometry">
            <mxPoint y="30" as="offset" />
          </mxGeometry>
        </mxCell>
        <mxCell id="OQivGDFEb7aUIYo6v7pB-7" value="Products" style="strokeColor=inherit;fillColor=inherit;gradientColor=inherit;fontColor=inherit;html=1;shadow=0;dashed=0;perimeter=none;whiteSpace=wrap;resizeWidth=1;sketch=0;" vertex="1" parent="OQivGDFEb7aUIYo6v7pB-4">
          <mxGeometry width="210" height="30" relative="1" as="geometry">
            <mxPoint y="60" as="offset" />
          </mxGeometry>
        </mxCell>
        <mxCell id="OQivGDFEb7aUIYo6v7pB-8" value="Profile" style="strokeColor=inherit;fillColor=inherit;gradientColor=inherit;fontColor=inherit;html=1;shadow=0;dashed=0;perimeter=none;whiteSpace=wrap;resizeWidth=1;sketch=0;" vertex="1" parent="OQivGDFEb7aUIYo6v7pB-4">
          <mxGeometry width="210" height="30" relative="1" as="geometry">
            <mxPoint y="90" as="offset" />
          </mxGeometry>
        </mxCell>
        <mxCell id="OQivGDFEb7aUIYo6v7pB-9" value="" style="strokeColor=inherit;fillColor=inherit;gradientColor=inherit;fontColor=inherit;html=1;shadow=0;dashed=0;perimeter=none;whiteSpace=wrap;resizeWidth=1;sketch=0;" vertex="1" parent="OQivGDFEb7aUIYo6v7pB-4">
          <mxGeometry width="210" height="30" relative="1" as="geometry">
            <mxPoint y="120" as="offset" />
          </mxGeometry>
        </mxCell>
        <mxCell id="OQivGDFEb7aUIYo6v7pB-10" value="Log Out" style="strokeColor=inherit;fillColor=inherit;gradientColor=inherit;fontColor=inherit;html=1;shadow=0;dashed=0;shape=mxgraph.bootstrap.bottomButton;rSize=5;perimeter=none;whiteSpace=wrap;resizeWidth=1;resizeHeight=0;sketch=0;" vertex="1" parent="OQivGDFEb7aUIYo6v7pB-4">
          <mxGeometry y="1" width="210" height="30" relative="1" as="geometry">
            <mxPoint y="-280" as="offset" />
          </mxGeometry>
        </mxCell>
        <mxCell id="OQivGDFEb7aUIYo6v7pB-11" value="Invoices" style="strokeWidth=1;shadow=0;dashed=0;align=center;html=1;shape=mxgraph.mockup.forms.comboBox;strokeColor=#666666;fillColor=#787878;align=left;fillColor2=#aaddff;mainText=;fontSize=17;spacingLeft=3;gradientColor=#b3b3b3;" vertex="1" parent="OQivGDFEb7aUIYo6v7pB-4">
          <mxGeometry x="56" y="34.19" width="140" height="15.81" as="geometry" />
        </mxCell>
        <mxCell id="OQivGDFEb7aUIYo6v7pB-12" value="2024 SISONKE Invoicing System" style="text;html=1;align=center;verticalAlign=middle;resizable=0;points=[];autosize=1;strokeColor=none;fillColor=none;" vertex="1" parent="OQivGDFEb7aUIYo6v7pB-1">
          <mxGeometry x="330" y="630" width="200" height="30" as="geometry" />
        </mxCell>
        <mxCell id="OQivGDFEb7aUIYo6v7pB-13" value="" style="line;strokeWidth=1" vertex="1" parent="OQivGDFEb7aUIYo6v7pB-1">
          <mxGeometry x="23" y="100" width="780" height="10" as="geometry" />
        </mxCell>
        <mxCell id="OQivGDFEb7aUIYo6v7pB-14" value="Account Details" style="text;spacingTop=-5;" vertex="1" parent="OQivGDFEb7aUIYo6v7pB-1">
          <mxGeometry x="702" y="70" width="90" height="20" as="geometry" />
        </mxCell>
        <mxCell id="OQivGDFEb7aUIYo6v7pB-33" value="Products" style="shape=table;startSize=30;container=1;collapsible=0;childLayout=tableLayout;strokeColor=default;fontSize=16;" vertex="1" parent="OQivGDFEb7aUIYo6v7pB-1">
          <mxGeometry x="252" y="180" width="510" height="390" as="geometry" />
        </mxCell>
        <mxCell id="OQivGDFEb7aUIYo6v7pB-34" value="" style="shape=tableRow;horizontal=0;startSize=0;swimlaneHead=0;swimlaneBody=0;strokeColor=inherit;top=0;left=0;bottom=0;right=0;collapsible=0;dropTarget=0;fillColor=none;points=[[0,0.5],[1,0.5]];portConstraint=eastwest;fontSize=16;" vertex="1" parent="OQivGDFEb7aUIYo6v7pB-33">
          <mxGeometry y="30" width="510" height="114" as="geometry" />
        </mxCell>
        <mxCell id="OQivGDFEb7aUIYo6v7pB-35" value="" style="shape=partialRectangle;html=1;whiteSpace=wrap;connectable=0;strokeColor=inherit;overflow=hidden;fillColor=none;top=0;left=0;bottom=0;right=0;pointerEvents=1;fontSize=16;" vertex="1" parent="OQivGDFEb7aUIYo6v7pB-34">
          <mxGeometry width="170" height="114" as="geometry">
            <mxRectangle width="170" height="114" as="alternateBounds" />
          </mxGeometry>
        </mxCell>
        <mxCell id="OQivGDFEb7aUIYo6v7pB-36" value="" style="shape=partialRectangle;html=1;whiteSpace=wrap;connectable=0;strokeColor=inherit;overflow=hidden;fillColor=none;top=0;left=0;bottom=0;right=0;pointerEvents=1;fontSize=16;" vertex="1" parent="OQivGDFEb7aUIYo6v7pB-34">
          <mxGeometry x="170" width="170" height="114" as="geometry">
            <mxRectangle width="170" height="114" as="alternateBounds" />
          </mxGeometry>
        </mxCell>
        <mxCell id="OQivGDFEb7aUIYo6v7pB-37" value="" style="shape=partialRectangle;html=1;whiteSpace=wrap;connectable=0;strokeColor=inherit;overflow=hidden;fillColor=none;top=0;left=0;bottom=0;right=0;pointerEvents=1;fontSize=16;" vertex="1" parent="OQivGDFEb7aUIYo6v7pB-34">
          <mxGeometry x="340" width="170" height="114" as="geometry">
            <mxRectangle width="170" height="114" as="alternateBounds" />
          </mxGeometry>
        </mxCell>
        <mxCell id="OQivGDFEb7aUIYo6v7pB-38" value="" style="shape=tableRow;horizontal=0;startSize=0;swimlaneHead=0;swimlaneBody=0;strokeColor=inherit;top=0;left=0;bottom=0;right=0;collapsible=0;dropTarget=0;fillColor=none;points=[[0,0.5],[1,0.5]];portConstraint=eastwest;fontSize=16;" vertex="1" parent="OQivGDFEb7aUIYo6v7pB-33">
          <mxGeometry y="144" width="510" height="132" as="geometry" />
        </mxCell>
        <mxCell id="OQivGDFEb7aUIYo6v7pB-39" value="" style="shape=partialRectangle;html=1;whiteSpace=wrap;connectable=0;strokeColor=inherit;overflow=hidden;fillColor=none;top=0;left=0;bottom=0;right=0;pointerEvents=1;fontSize=16;" vertex="1" parent="OQivGDFEb7aUIYo6v7pB-38">
          <mxGeometry width="170" height="132" as="geometry">
            <mxRectangle width="170" height="132" as="alternateBounds" />
          </mxGeometry>
        </mxCell>
        <mxCell id="OQivGDFEb7aUIYo6v7pB-40" value="" style="shape=partialRectangle;html=1;whiteSpace=wrap;connectable=0;strokeColor=inherit;overflow=hidden;fillColor=none;top=0;left=0;bottom=0;right=0;pointerEvents=1;fontSize=16;" vertex="1" parent="OQivGDFEb7aUIYo6v7pB-38">
          <mxGeometry x="170" width="170" height="132" as="geometry">
            <mxRectangle width="170" height="132" as="alternateBounds" />
          </mxGeometry>
        </mxCell>
        <mxCell id="OQivGDFEb7aUIYo6v7pB-41" value="" style="shape=partialRectangle;html=1;whiteSpace=wrap;connectable=0;strokeColor=inherit;overflow=hidden;fillColor=none;top=0;left=0;bottom=0;right=0;pointerEvents=1;fontSize=16;" vertex="1" parent="OQivGDFEb7aUIYo6v7pB-38">
          <mxGeometry x="340" width="170" height="132" as="geometry">
            <mxRectangle width="170" height="132" as="alternateBounds" />
          </mxGeometry>
        </mxCell>
        <mxCell id="OQivGDFEb7aUIYo6v7pB-42" value="" style="shape=tableRow;horizontal=0;startSize=0;swimlaneHead=0;swimlaneBody=0;strokeColor=inherit;top=0;left=0;bottom=0;right=0;collapsible=0;dropTarget=0;fillColor=none;points=[[0,0.5],[1,0.5]];portConstraint=eastwest;fontSize=16;" vertex="1" parent="OQivGDFEb7aUIYo6v7pB-33">
          <mxGeometry y="276" width="510" height="114" as="geometry" />
        </mxCell>
        <mxCell id="OQivGDFEb7aUIYo6v7pB-43" value="" style="shape=partialRectangle;html=1;whiteSpace=wrap;connectable=0;strokeColor=inherit;overflow=hidden;fillColor=none;top=0;left=0;bottom=0;right=0;pointerEvents=1;fontSize=16;" vertex="1" parent="OQivGDFEb7aUIYo6v7pB-42">
          <mxGeometry width="170" height="114" as="geometry">
            <mxRectangle width="170" height="114" as="alternateBounds" />
          </mxGeometry>
        </mxCell>
        <mxCell id="OQivGDFEb7aUIYo6v7pB-44" value="" style="shape=partialRectangle;html=1;whiteSpace=wrap;connectable=0;strokeColor=inherit;overflow=hidden;fillColor=none;top=0;left=0;bottom=0;right=0;pointerEvents=1;fontSize=16;" vertex="1" parent="OQivGDFEb7aUIYo6v7pB-42">
          <mxGeometry x="170" width="170" height="114" as="geometry">
            <mxRectangle width="170" height="114" as="alternateBounds" />
          </mxGeometry>
        </mxCell>
        <mxCell id="OQivGDFEb7aUIYo6v7pB-45" value="" style="shape=partialRectangle;html=1;whiteSpace=wrap;connectable=0;strokeColor=inherit;overflow=hidden;fillColor=none;top=0;left=0;bottom=0;right=0;pointerEvents=1;fontSize=16;" vertex="1" parent="OQivGDFEb7aUIYo6v7pB-42">
          <mxGeometry x="340" width="170" height="114" as="geometry">
            <mxRectangle width="170" height="114" as="alternateBounds" />
          </mxGeometry>
        </mxCell>
        <mxCell id="OQivGDFEb7aUIYo6v7pB-46" value="LOGO" style="whiteSpace=wrap;html=1;rounded=0;shadow=0;labelBackgroundColor=none;strokeWidth=1;fontFamily=Verdana;fontSize=28;align=center;comic=1;" vertex="1" parent="OQivGDFEb7aUIYo6v7pB-1">
          <mxGeometry x="23" y="10" width="100" height="50" as="geometry" />
        </mxCell>
        <mxCell id="OQivGDFEb7aUIYo6v7pB-29" value="" style="line;strokeWidth=1" vertex="1" parent="1">
          <mxGeometry x="20" y="60" width="780" height="10" as="geometry" />
        </mxCell>
        <mxCell id="OQivGDFEb7aUIYo6v7pB-31" value="Product" style="text;html=1;align=center;verticalAlign=middle;resizable=0;points=[];autosize=1;strokeColor=none;fillColor=none;" vertex="1" parent="1">
          <mxGeometry x="20" y="78" width="60" height="30" as="geometry" />
        </mxCell>
      </root>
    </mxGraphModel>
  </diagram>
</mxfile>
